<?xml version="1.0" standalone="no"?>
<!DOCTYPE svg PUBLIC "-//W3C//DTD SVG 20010904//EN"
 "http://www.w3.org/TR/2001/REC-SVG-20010904/DTD/svg10.dtd">
<svg version="1.0" xmlns="http://www.w3.org/2000/svg"
 width="367.000000pt" height="367.000000pt" viewBox="0 0 367.000000 367.000000"
 preserveAspectRatio="xMidYMid meet">
<metadata>
Created by potrace 1.14, written by Peter Selinger 2001-2017
</metadata>
<g transform="translate(0.000000,367.000000) scale(0.100000,-0.100000)"
fill="#000000" stroke="none">
<path d="M1645 3660 l-280 -5 -1 -60 c-1 -33 -5 -355 -9 -715 -7 -716 -5 -683
-30 -790 -33 -141 -35 -145 -254 -524 -113 -195 -124 -210 -230 -317 -146
-145 -264 -230 -383 -274 -198 -74 -248 -116 -248 -208 0 -42 54 -143 108
-203 46 -50 71 -94 91 -157 26 -78 142 -202 246 -262 60 -34 62 -34 159 -30
108 5 193 13 216 20 8 2 32 6 52 9 81 12 241 57 323 90 71 29 11 -11 -90 -59
-92 -44 -155 -64 -305 -95 -47 -10 -78 -19 -70 -20 8 -1 24 -3 35 -5 85 -17
311 -23 430 -13 156 15 341 65 538 148 197 82 256 148 502 559 106 176 136
219 211 294 89 91 111 107 224 169 294 162 397 248 473 397 50 97 64 144 93
306 7 41 7 193 0 230 -3 17 -8 40 -10 53 -16 79 -109 219 -230 348 -134 144
-152 183 -162 344 -6 109 -7 667 -1 738 l3 32 -260 1 c-144 0 -396 1 -561 2
-165 1 -426 0 -580 -3z m1128 -49 l217 -1 0 -50 0 -50 -785 0 -784 0 2 48 2
47 270 5 c148 3 403 4 565 3 162 -1 393 -2 513 -2z m-475 -450 l42 -1 -16 -26
c-21 -31 -20 -87 0 -116 14 -20 14 -25 -4 -53 -45 -73 6 -165 91 -165 33 0 47
6 75 34 19 19 34 41 34 49 0 12 15 15 80 15 l80 0 16 -34 c50 -105 206 -72
206 42 0 19 -7 45 -16 59 -15 22 -14 27 5 59 16 28 19 45 14 76 -4 22 -11 40
-16 40 -5 0 -9 5 -9 10 0 6 24 10 54 10 l55 0 1 -117 c1 -123 6 -214 14 -273
9 -60 68 -154 156 -250 99 -108 172 -202 162 -211 -4 -3 -34 -12 -67 -19 -185
-39 -428 -122 -502 -172 -78 -53 -141 -149 -181 -278 -16 -53 -21 -109 -28
-300 -4 -129 -8 -305 -8 -391 l-1 -155 -56 -90 c-30 -49 -93 -152 -138 -228
-81 -137 -159 -251 -166 -244 -2 2 -86 84 -187 183 -200 197 -313 283 -493
373 -143 72 -472 196 -572 217 -18 4 -33 9 -33 12 0 3 21 28 46 57 49 54 110
141 136 191 8 17 55 98 103 180 123 206 150 262 179 357 32 106 36 127 42 218
3 61 12 634 14 882 l0 58 333 2 c182 2 373 2 422 1 50 -1 109 -2 133 -2z m406
-29 c-7 -15 -14 -32 -14 -39 0 -8 -13 -12 -35 -11 -27 1 -35 6 -35 20 0 24
-40 24 -47 -1 -8 -30 -41 -19 -61 21 l-19 37 113 0 113 0 -15 -27z m-2369
-2431 c3 -11 3 -31 -1 -46 l-7 -27 -19 31 c-21 33 -18 61 6 61 8 0 17 -9 21
-19z"/>
<path d="M1670 2376 c-27 -7 -45 -18 -45 -26 0 -8 6 -14 14 -12 8 2 29 6 45 9
l31 6 -26 -21 c-64 -52 -82 -152 -43 -246 6 -16 -2 -13 -38 13 -26 18 -51 30
-57 26 -17 -10 -5 -23 57 -63 161 -103 305 -102 407 3 41 42 57 70 87 150 20
55 35 101 33 103 -2 2 -52 17 -112 33 -124 35 -278 45 -353 25z m370 -62 c30
-8 56 -16 57 -18 9 -8 -71 -177 -98 -207 l-30 -34 17 35 c10 19 18 60 20 90 2
53 -4 73 -45 140 -12 21 -12 22 5 16 11 -5 44 -14 74 -22z"/>
</g>
</svg>
